<?xml version="1.0" encoding="UTF-8"?>
<!DOCTYPE svg PUBLIC "-//W3C//DTD SVG 1.1//EN" "http://www.w3.org/Graphics/SVG/1.1/DTD/svg11.dtd">
<!-- Creator: CorelDRAW 2018 (64-Bit) -->
<svg xmlns="http://www.w3.org/2000/svg" xml:space="preserve" width="11in" height="8.5in" version="1.1" style="shape-rendering:geometricPrecision; text-rendering:geometricPrecision; image-rendering:optimizeQuality; fill-rule:evenodd; clip-rule:evenodd"
viewBox="0 0 11000 8500"
 xmlns:xlink="http://www.w3.org/1999/xlink">
 <defs>
  <style type="text/css">
   <![CDATA[
    .fil2 {fill:url(#id0)}
    .fil0 {fill:url(#id1)}
    .fil1 {fill:url(#id2)}
    .fil3 {fill:url(#id3)}
   ]]>
  </style>
  <linearGradient id="id0" gradientUnits="userSpaceOnUse" x1="227.39" y1="3981.24" x2="1221.63" y2="3981.24">
   <stop offset="0" style="stop-opacity:1; stop-color:#0096FF"/>
   <stop offset="1" style="stop-opacity:1; stop-color:navy"/>
  </linearGradient>
  <linearGradient id="id1" gradientUnits="userSpaceOnUse" xlink:href="#id0" x1="4541.69" y1="3606.03" x2="11453.48" y2="3605.91">
  </linearGradient>
  <linearGradient id="id2" gradientUnits="userSpaceOnUse" xlink:href="#id0" x1="6821.78" y1="5320.51" x2="11204.33" y2="5320.39">
  </linearGradient>
  <linearGradient id="id3" gradientUnits="userSpaceOnUse" xlink:href="#id0" x1="1294.29" y1="3981.24" x2="4650.17" y2="3981.23">
  </linearGradient>
 </defs>
 <g id="Layer_x0020_1">
  <metadata id="CorelCorpID_0Corel-Layer"/>
  <g id="_2287471224624">
   <g>
    <path class="fil0" d="M4541.69 4825.63l0 -2107.24 571.02 0 0 1617.39 942.02 0 0 489.85 -1513.04 0zm1785.02 0l0 -2107.24 571.01 0 0 2107.24 -571.01 0zm1428.99 0l0 -1637.68 -542.04 0 0 -469.56 1652.18 0 0 469.56 -539.13 0 0 1637.68 -571.01 0zm1411.1 0l0 -2107.24 1583.09 0 0 469.56 -1017.88 0 0 365.22 988.41 0 0 405.79 -988.41 0 0 397.1 1040.58 0 0 469.56 -1605.8 0z"/>
    <path class="fil1" d="M6821.78 5771.99l0 -777.51 364.87 0c102.49,0 175.93,20.14 220.13,60.25 44.2,40.28 66.31,106.41 66.31,198.74l0 51.16c0,92.51 -22.1,159 -66.48,199.28 -44.39,40.46 -117.82,60.6 -219.96,60.6l-156.32 0 0 207.48 -208.55 0zm208.55 -380.74l145.27 0c34.22,0 56.86,-6.06 67.91,-18.36 11.23,-12.12 16.76,-36.72 16.76,-73.61l0 -44.92c0,-30.83 -7.13,-52.94 -21.21,-65.95 -14.08,-13.01 -37.96,-19.61 -71.83,-19.61l-136.9 0 0 222.45zm548.82 -396.78l207.48 0 0 453.28c0,63.1 7.85,103.92 23.71,122.81 15.87,18.71 48.31,28.16 97.32,28.16l38.14 0c48.66,0 80.75,-9.27 96.43,-27.63 15.69,-18.54 23.53,-59.54 23.53,-123.35l0 -453.28 207.48 0 0 469.5c0,69.7 -4.28,120.85 -12.83,153.65 -8.56,32.62 -22.99,61.14 -43.49,85.02 -24.42,28.34 -54.9,48.48 -91.26,60.6 -36.36,12.3 -85.56,18.36 -147.59,18.36l-102.67 0c-62.03,0 -111.22,-6.06 -147.59,-18.36 -36.36,-12.12 -66.67,-32.26 -90.73,-60.6 -20.85,-24.24 -35.65,-53.12 -44.56,-86.45 -8.91,-33.15 -13.37,-83.96 -13.37,-152.22l0 -469.5zm840.43 777.51l0 -777.51 310.15 0 241.7 577.52 0 -577.52 198.93 0 0 777.51 -310.15 0 -241.7 -582.69 0 582.69 -198.93 0zm1538.09 -299.45l0 22.46c0,101.42 -22.28,174.68 -66.84,219.42 -44.56,44.74 -117.29,67.2 -218.53,67.2l-70.58 0c-109.98,0 -186.98,-23.52 -231.19,-70.41 -44.2,-46.88 -66.31,-129.41 -66.31,-247.58l0 -161.13c0,-118.18 22.1,-200.53 66.31,-247.41 44.21,-46.88 121.21,-70.23 231.19,-70.23l57.57 0c109.09,0 185.2,20.5 228.33,61.67 43.13,41 64.7,113.54 64.7,217.28l0 15.15 -207.48 0 0 -14.08c0,-35.47 -8.2,-60.61 -24.6,-75.22 -16.22,-14.62 -44.92,-21.93 -85.56,-21.93 -44.92,0 -74.86,8.73 -89.83,26.02 -14.97,17.47 -22.46,59.36 -22.46,125.84l0 127.8c0,66.31 7.49,108.2 22.46,125.49 14.97,17.29 44.92,25.84 89.83,25.84 42.07,0 71.12,-8.02 87.17,-23.89 16.04,-15.86 24.06,-44.03 24.06,-84.49l0 -17.82 211.76 0zm126.2 299.45l0 -777.51 208.55 0 0 290.9 271.65 0 0 -290.9 208.55 0 0 777.51 -208.55 0 0 -303.73 -271.65 0 0 303.73 -208.55 0z"/>
   </g>
   <path class="fil2" d="M539.14 3556.35l0 -786.34 -260.26 0 0 -225.47 793.3 0 0 225.47 -258.87 0 0 786.34 -274.18 0zm-249.12 2399.09l0 -1011.81 760.13 0 0 225.46 -488.73 0 0 175.36 474.59 0 0 194.85 -474.59 0 0 190.67 499.64 0 0 225.46 -771.04 0zm-62.63 -1199.55l0 -1011.81 271.39 0 0 378.56 353.5 0 0 -378.56 271.39 0 0 1011.81 -271.39 0 0 -395.26 -353.5 0 0 395.26 -271.39 0z"/>
   <path class="fil3" d="M2162.28 5087.46l1.62 0 2155.68 0 0 868 -1586.1 0 -571.2 0 -296.79 0c-302.03,0 -571.2,-168.93 -571.2,-592.32l0 -275.67 0 -403.46 0 -868 868 0 3.99 0 2153.31 0 0 868 -2154.93 0 -2.37 0 0 403.46zm-867.99 -2542.91l3025.3 0 0 868 -3025.3 0 0 -868z"/>
  </g>
 </g>
</svg>
